<?xml version="1.0" encoding="utf-8"?>
<svg version="1.1" id="Layer_1" xmlns="http://www.w3.org/2000/svg" xmlns:xlink="http://www.w3.org/1999/xlink" x="0px" y="0px"
	 viewBox="0 0 128 128" style="enable-background:new 0 0 128 128;" xml:space="preserve">
<circle fill="currentColor" cx="64.05" cy="63.95" r="63.95"/>
<path id="path985" class="white" d="M91.88,33.06h11.32L79.6,55.18c-4.23,3.83-9.74,5.95-15.45,5.95c-5.71,0-11.22-2.12-15.45-5.95
	L25.1,33.06h11.32l17.88,16.72c2.67,2.45,6.16,3.81,9.79,3.81c3.62,0,7.12-1.36,9.79-3.81L91.88,33.06z"/>
<path id="path987" class="white" d="M36.32,94.44H25l23.7-22.22c4.21-3.88,9.73-6.03,15.45-6.03s11.24,2.15,15.45,6.03l23.7,22.22
	H91.98L73.99,77.51c-2.67-2.45-6.16-3.81-9.79-3.81s-7.12,1.36-9.79,3.81L36.32,94.44z"/>
</svg>
